<svg fill="none" height="72" viewBox="0 0 24 24" width="72" xmlns="http://www.w3.org/2000/svg"><path clip-rule="evenodd" d="m2.75 6c0-1.79493 1.45507-3.25 3.25-3.25h11c.4142 0 .75-.33579.75-.75s-.3358-.75-.75-.75h-11c-2.62335 0-4.75 2.12665-4.75 4.75v12c0 2.6234 2.12665 4.75 4.75 4.75h12c2.6234 0 4.75-2.1266 4.75-4.75v-9c0-.41421-.3358-.75-.75-.75s-.75.33579-.75.75v9c0 1.7949-1.4551 3.25-3.25 3.25h-12c-1.79493 0-3.25-1.4551-3.25-3.25zm18.8075-1.49827c.2771-.30788.2521-.7821-.0557-1.05919-.3079-.2771-.7821-.25214-1.0592.05574l-7.7376 8.59732c-.443.4922-1.193.5536-1.71.1399l-3.52645-2.82114c-.32345-.25876-.79542-.20632-1.05417.11713-.25876.32344-.20632.79541.11713 1.05421l3.52639 2.8211c1.1376.91 2.7875.7751 3.762-.3077z" fill="#28303f" fill-rule="evenodd"/></svg>
