<svg height="48" viewBox="0 0 24 24" width="48" xmlns="http://www.w3.org/2000/svg"><path d="m21.25 13c.3796958 0 .693491.2821539.7431534.6482294l.0068466.1017706v5c0 1.7330315-1.3564548 3.1492459-3.0655761 3.2448552l-.1844239.0051448-4.6678474.0001508c.536287-.3854948.9732718-.9004402 1.2652191-1.4991008l3.4026283-.00105c.9181734 0 1.6711923-.7071103 1.7441988-1.6064728l.0058012-.1435272v-5c0-.4142136.3357864-.75.75-.75zm-9.5-4c1.7949254 0 3.25 1.4550746 3.25 3.25v6.5c0 1.7949254-1.4550746 3.25-3.25 3.25h-6.5c-1.79492544 0-3.25-1.4550746-3.25-3.25v-6.5c0-1.7949254 1.45507456-3.25 3.25-3.25zm-5.68894779 4.102845c-.04006052.0734443-.06105221.1557666-.06105221.2394261v4.3154578c0 .2761424.22385763.5.5.5.08365949 0 .16598177-.0209917.23942607-.0610522l3.95583633-2.1577289c.2424242-.1322314.3317531-.4359497.1995217-.6783739-.0459727-.0842832-.1152384-.153549-.1995217-.1995217l-3.95583633-2.1577289c-.24242417-.1322314-.54614249-.0429024-.67837386.1995217zm12.68894779-11.102845c1.7330315 0 3.1492459 1.35645477 3.2448552 3.06557609l.0051448.18442391v5c0 .4142136-.3357864.75-.75.75-.3796958 0-.693491-.2821539-.7431534-.6482294l-.0068466-.1017706v-5c0-.9181734-.7071103-1.67119234-1.6064728-1.7441988l-.1435272-.0058012h-5c-.4142136 0-.75-.33578644-.75-.75 0-.37969577.2821539-.69349096.6482294-.74315338l.1017706-.00684662zm-8.5 0c.4142136 0 .75.33578644.75.75 0 .37969577-.2821539.69349096-.6482294.74315338l-.1017706.00684662h-5c-.9181734 0-1.67119234.70711027-1.7441988 1.60647279l-.0058012.14352721-.00004322 3.40213751c-.59909001.29194819-1.11439669.7291223-1.50010758 1.26570988l.0001508-4.66784739c0-1.73303146 1.35645477-3.14924593 3.06557609-3.24485521l.18442391-.00514479z" fill="#212121"/></svg>
