<?xml version="1.0" encoding="UTF-8"?>
<!DOCTYPE svg PUBLIC "-//W3C//DTD SVG 1.1//EN" "http://www.w3.org/Graphics/SVG/1.1/DTD/svg11.dtd">
<svg xmlns="http://www.w3.org/2000/svg" version="1.1" width="468px" height="481px" style="shape-rendering:geometricPrecision; text-rendering:geometricPrecision; image-rendering:optimizeQuality; fill-rule:evenodd; clip-rule:evenodd" xmlns:xlink="http://www.w3.org/1999/xlink">
<g><path style="opacity:0.979" fill="#fe831a" d="M 200.5,-0.5 C 203.167,-0.5 205.833,-0.5 208.5,-0.5C 246.57,53.296 284.403,107.296 322,161.5C 323.157,165.346 321.991,168.179 318.5,170C 295.502,170.5 272.502,170.667 249.5,170.5C 255.972,203.691 262.638,236.858 269.5,270C 268.214,276.32 264.547,278.32 258.5,276C 219.889,222.72 182.055,168.887 145,114.5C 144.363,110.938 145.53,108.105 148.5,106C 171.498,105.5 194.498,105.333 217.5,105.5C 211.324,73.4513 204.824,41.4513 198,9.5C 196.861,5.57891 197.695,2.24558 200.5,-0.5 Z"/></g>
<g><path style="opacity:0.989" fill="#fe832a" d="M 467.5,256.5 C 467.5,266.5 467.5,276.5 467.5,286.5C 466.715,303.01 465.882,319.677 465,336.5C 464.769,343.657 463.269,350.491 460.5,357C 444.234,358.872 427.9,359.872 411.5,360C 293.167,361.997 174.833,361.997 56.5,360C 39.7733,359.849 23.1067,358.849 6.5,357C 3.73061,350.491 2.23061,343.657 2,336.5C 1.11797,319.677 0.284639,303.01 -0.5,286.5C -0.5,276.5 -0.5,266.5 -0.5,256.5C -0.0698034,235.238 1.26353,213.904 3.5,192.5C 6.45733,190.188 9.79066,188.688 13.5,188C 30.5534,183.789 47.5534,183.789 64.5,188C 69.8694,191.212 72.3694,196.045 72,202.5C 73.3857,232.146 73.8857,261.812 73.5,291.5C 180.154,286.572 286.82,286.239 393.5,290.5C 393.116,261.146 393.616,231.812 395,202.5C 394.631,196.045 397.131,191.212 402.5,188C 417.713,183.784 433.047,183.45 448.5,187C 453.475,187.576 458.141,189.076 462.5,191.5C 464.022,194.629 464.855,197.963 465,201.5C 465.894,219.99 466.727,238.323 467.5,256.5 Z"/></g>
<g><path style="opacity:0.96" fill="#000000" d="M 76.5,365.5 C 82.4337,364.889 88.1004,365.722 93.5,368C 98.7729,374.263 98.7729,380.597 93.5,387C 85.6491,390.729 78.1491,390.229 71,385.5C 70.1376,383.913 69.4709,382.246 69,380.5C 68.5005,386.491 68.3338,392.491 68.5,398.5C 61.1667,398.5 53.8333,398.5 46.5,398.5C 46.5,416.167 46.5,433.833 46.5,451.5C 38.1667,451.5 29.8333,451.5 21.5,451.5C 21.5,433.833 21.5,416.167 21.5,398.5C 14.5,398.5 7.5,398.5 0.5,398.5C 0.5,391.833 0.5,385.167 0.5,378.5C 23.1667,378.5 45.8333,378.5 68.5,378.5C 68.4089,372.329 71.0756,367.995 76.5,365.5 Z"/></g>
<g><path style="opacity:0.939" fill="#000000" d="M 373.5,365.5 C 377.846,365.334 382.179,365.501 386.5,366C 393.666,368.834 396.166,374.001 394,381.5C 391.327,387.507 386.66,390.174 380,389.5C 366.835,388.518 362.835,381.851 368,369.5C 369.812,368.023 371.645,366.69 373.5,365.5 Z"/></g>
<g><path style="opacity:0.97" fill="#000000" d="M 105.5,374.5 C 113.5,374.5 121.5,374.5 129.5,374.5C 129.333,385.838 129.5,397.172 130,408.5C 134.5,404 139,399.5 143.5,395C 153.184,394.168 162.851,394.335 172.5,395.5C 164.798,403.2 157.465,411.2 150.5,419.5C 158.5,429.833 166.5,440.167 174.5,450.5C 164.5,451.833 154.5,451.833 144.5,450.5C 140.5,445.5 136.5,440.5 132.5,435.5C 131.522,435.977 130.689,436.643 130,437.5C 129.501,442.155 129.334,446.821 129.5,451.5C 121.5,451.5 113.5,451.5 105.5,451.5C 105.5,425.833 105.5,400.167 105.5,374.5 Z"/></g>
<g><path style="opacity:0.97" fill="#000000" d="M 294.5,374.5 C 302.5,374.5 310.5,374.5 318.5,374.5C 318.333,385.838 318.5,397.172 319,408.5C 323.5,404 328,399.5 332.5,395C 342.184,394.168 351.851,394.335 361.5,395.5C 353.798,403.2 346.465,411.2 339.5,419.5C 347.5,429.833 355.5,440.167 363.5,450.5C 353.5,451.833 343.5,451.833 333.5,450.5C 329.5,445.5 325.5,440.5 321.5,435.5C 320.522,435.977 319.689,436.643 319,437.5C 318.501,442.155 318.334,446.821 318.5,451.5C 310.5,451.5 302.5,451.5 294.5,451.5C 294.5,425.833 294.5,400.167 294.5,374.5 Z"/></g>
<g><path style="opacity:0.965" fill="#000000" d="M 180.5,381.5 C 188.5,381.5 196.5,381.5 204.5,381.5C 204.5,386.833 204.5,392.167 204.5,397.5C 208.5,397.5 212.5,397.5 216.5,397.5C 216.5,403.5 216.5,409.5 216.5,415.5C 212.5,415.5 208.5,415.5 204.5,415.5C 204.149,421.262 204.649,426.928 206,432.5C 208.718,434.769 211.551,434.769 214.5,432.5C 216.792,437.876 218.792,443.376 220.5,449C 219.318,450.735 217.651,451.735 215.5,452C 209.167,452.667 202.833,452.667 196.5,452C 187.299,449.779 182.133,443.945 181,434.5C 180.5,428.175 180.334,421.842 180.5,415.5C 178.167,415.5 175.833,415.5 173.5,415.5C 173.5,409.5 173.5,403.5 173.5,397.5C 175.833,397.5 178.167,397.5 180.5,397.5C 180.5,392.167 180.5,386.833 180.5,381.5 Z"/></g>
<g><path style="opacity:0.96" fill="#000000" d="M 244.5,393.5 C 256.933,391.566 268.267,394.066 278.5,401C 288.661,412.74 290.161,425.573 283,439.5C 272.871,451.255 260.037,455.422 244.5,452C 224.618,445.408 217.451,431.908 223,411.5C 227.391,402.071 234.558,396.071 244.5,393.5 Z M 251.5,412.5 C 259.065,411.897 263.065,415.397 263.5,423C 262.641,432.09 257.975,435.09 249.5,432C 245.324,427.443 244.491,422.276 247,416.5C 248.397,414.93 249.897,413.596 251.5,412.5 Z"/></g>
<g><path style="opacity:0.96" fill="#000000" d="M 421.5,393.5 C 433.933,391.566 445.267,394.066 455.5,401C 465.661,412.74 467.161,425.573 460,439.5C 449.871,451.255 437.037,455.422 421.5,452C 401.618,445.408 394.451,431.908 400,411.5C 404.391,402.071 411.558,396.071 421.5,393.5 Z M 428.5,412.5 C 436.065,411.897 440.065,415.397 440.5,423C 439.641,432.09 434.975,435.09 426.5,432C 422.324,427.443 421.491,422.276 424,416.5C 425.397,414.93 426.897,413.596 428.5,412.5 Z"/></g>
<g><path style="opacity:0.969" fill="#000000" d="M 71.5,394.5 C 79.5,394.5 87.5,394.5 95.5,394.5C 95.5,413.5 95.5,432.5 95.5,451.5C 87.5,451.5 79.5,451.5 71.5,451.5C 71.5,432.5 71.5,413.5 71.5,394.5 Z"/></g>
<g><path style="opacity:0.969" fill="#000000" d="M 368.5,394.5 C 376.5,394.5 384.5,394.5 392.5,394.5C 392.5,413.5 392.5,432.5 392.5,451.5C 384.5,451.5 376.5,451.5 368.5,451.5C 368.5,432.5 368.5,413.5 368.5,394.5 Z"/></g>
</svg>
