<?xml version="1.0" encoding="UTF-8"?>
<svg version="1.1" xmlns="http://www.w3.org/2000/svg" width="488" height="488">
<path d="M0 0 C0.91458984 0.19867676 1.82917969 0.39735352 2.77148438 0.60205078 C30.49029196 6.83178279 57.59382666 18.33246907 80 36 C80.94617188 36.73734375 81.89234375 37.4746875 82.8671875 38.234375 C103.32219861 54.5752054 119.93911569 73.26053209 133 96 C133.35803711 96.62036133 133.71607422 97.24072266 134.08496094 97.87988281 C159.1634776 141.7944753 165.90040127 196.08912191 153 245 C148.90638041 259.23468034 144.26077379 273.22572783 137.00927734 286.18164062 C135.95665632 288.07808992 134.95530681 289.99632499 133.95703125 291.921875 C125.86208667 307.25445462 115.02827947 320.57708115 103 333 C102.49500977 333.53077148 101.99001953 334.06154297 101.46972656 334.60839844 C85.02031914 351.86762284 65.62373963 365.02111131 44 375 C42.86304688 375.53238281 41.72609375 376.06476563 40.5546875 376.61328125 C-7.15563359 398.03311218 -62.21011835 398.30600375 -110.95214844 380.19335938 C-126.27609893 374.19340183 -140.60560556 366.54729325 -154 357 C-154.58426758 356.58395508 -155.16853516 356.16791016 -155.77050781 355.73925781 C-164.44920969 349.47489429 -172.27582885 342.38742254 -180 335 C-180.67804688 334.36320312 -181.35609375 333.72640625 -182.0546875 333.0703125 C-213.77539922 302.51902794 -235.98579973 254.13949746 -237.16113281 209.93676758 C-237.18066156 208.50608694 -237.19442911 207.07531874 -237.203125 205.64453125 C-237.21013931 204.86895874 -237.21715363 204.09338623 -237.22438049 203.29431152 C-237.24180807 200.80031474 -237.2482342 198.30655547 -237.25 195.8125 C-237.25067474 194.96029877 -237.25134949 194.10809753 -237.25204468 193.23007202 C-237.23574857 180.28167157 -236.81732513 167.68886182 -234 155 C-233.73461426 153.80286377 -233.73461426 153.80286377 -233.46386719 152.58154297 C-232.17912131 146.99101235 -230.6724572 141.48632957 -229 136 C-228.78504883 135.29456055 -228.57009766 134.58912109 -228.34863281 133.86230469 C-219.447011 105.40106544 -204.01025267 80.01462239 -183.45947266 58.52685547 C-182.47491573 57.49684225 -181.4955186 56.46187541 -180.52099609 55.42236328 C-150.15567098 23.11192837 -109.3228742 4.93519578 -66 -2 C-65.30277832 -2.1119873 -64.60555664 -2.22397461 -63.88720703 -2.33935547 C-43.43638035 -5.09660463 -20.11563431 -4.40375708 0 0 Z " fill="#000000" transform="translate(283,49)"/>
<path d="M0 0 C13.2 0 26.4 0 40 0 C40.99 6.93 40.99 6.93 42 14 C46.2623879 27.89564848 54.77252964 39.6243636 67.40625 46.984375 C76.67107259 51.89867239 84.45040188 53.82782243 95 55 C95 67.87 95 80.74 95 94 C77.42929586 94 61.17437774 91.00821489 46.24487305 81.38183594 C45.2607695 80.74920837 44.27666595 80.11658081 43.26274109 79.46478271 C42.51603653 78.98140442 41.76933197 78.49802612 41 78 C41.00079559 79.08311462 41.00159119 80.16622925 41.00241089 81.28216553 C41.00604075 91.5774563 40.97779422 101.87225255 40.9197216 112.1673851 C40.89086509 117.45806187 40.8725646 122.74830229 40.87988281 128.0390625 C40.8865552 133.16174431 40.86354904 138.28356988 40.82144547 143.40607452 C40.81045318 145.34327387 40.80948577 147.28056156 40.81957626 149.21776581 C40.89694172 166.28266035 38.55467227 183.96101423 28 198 C27.39285156 198.8353125 26.78570312 199.670625 26.16015625 200.53125 C14.94377694 215.27912299 -1.71189267 226.44989355 -20.18359375 229.6875 C-35.78625314 231.41872434 -50.71213721 229.45319366 -65 223 C-65.77730469 222.65324219 -66.55460937 222.30648437 -67.35546875 221.94921875 C-78.83982947 216.19657905 -88.27435997 206.80411739 -95 196 C-95.55300781 195.11570312 -96.10601562 194.23140625 -96.67578125 193.3203125 C-106.45700823 176.57329856 -108.1698835 157.75355982 -104 139 C-98.81283253 120.12039046 -86.61811689 104.33845982 -70 94 C-55.73132649 86.54998463 -39.13593545 80.96601614 -23 85 C-23 98.2 -23 111.4 -23 125 C-28.94 125 -34.88 125 -41 125 C-50.03925352 127.67829734 -57.28206977 133.52073664 -62 141.75 C-66.60061333 150.63173962 -65.76913986 160.20099089 -62.91015625 169.5625 C-59.82897765 177.8142401 -53.72397071 183.5289537 -45.9296875 187.23828125 C-36.94773665 190.78378816 -26.2555288 190.02494377 -17.46875 186.31640625 C-8.47457114 181.52045961 -4.16648958 174.49946875 -1 165 C-0.89614481 162.79354592 -0.85352198 160.58406407 -0.84178162 158.37519836 C-0.83684364 157.69884895 -0.83190566 157.02249954 -0.82681805 156.32565469 C-0.81143523 154.0547521 -0.80308033 151.78387781 -0.79467773 149.51293945 C-0.78509982 147.88689932 -0.77508979 146.26086168 -0.76467896 144.63482666 C-0.73761439 140.2157397 -0.71661322 135.79664204 -0.69667697 131.37751794 C-0.674827 126.76103272 -0.64743347 122.14458053 -0.62062073 117.52812195 C-0.57068046 108.78403759 -0.52574658 100.03993491 -0.48259836 91.29581469 C-0.43323739 81.34186193 -0.37831503 71.38794231 -0.32291877 61.43402159 C-0.20907824 40.95604377 -0.10297791 20.47803553 0 0 Z " fill="#FEFEFE" transform="translate(246,124)"/>
<path d="M0 0 C4.49231231 2.07977422 7.09379763 4.73066088 9.3046875 9.078125 C10.54382919 12.50316832 10.62678998 15.43356499 10 19 C7.51389516 23.78826021 4.61492119 27.99084616 1.375 32.3125 C-4.55283766 40.44087313 -9.36773068 49.08327018 -14 58 C-14.35835937 58.68400879 -14.71671875 59.36801758 -15.0859375 60.07275391 C-40.66216573 109.53054487 -43.29117124 168.14495195 -26.96484375 220.85009766 C-23.2762683 232.2660371 -18.362262 243.275476 -13 254 C-12.56988181 258.21019538 -12.5300365 261.88692855 -14.1875 265.8125 C-17.10865708 269.33803441 -20.46677679 272.72207443 -25.171875 273.23828125 C-26.02265625 273.26277344 -26.8734375 273.28726562 -27.75 273.3125 C-28.59046875 273.34988281 -29.4309375 273.38726562 -30.296875 273.42578125 C-34.0773568 272.83030074 -36.0608143 271.43881494 -39 269 C-40.52425173 266.63538135 -41.71312394 264.52612935 -42.875 262 C-43.20741699 261.30285889 -43.53983398 260.60571777 -43.88232422 259.88745117 C-52.64395232 241.18102537 -59.09013196 221.98676757 -63.25 201.75 C-63.40114258 201.01974609 -63.55228516 200.28949219 -63.70800781 199.53710938 C-66.54287539 184.85723075 -67.37736159 170.29174473 -67.3125 155.375 C-67.31067719 154.50014954 -67.30885437 153.62529907 -67.30697632 152.72393799 C-67.25881454 138.95469063 -66.62694228 125.54949176 -64 112 C-63.83902832 111.12956055 -63.67805664 110.25912109 -63.51220703 109.36230469 C-56.63617457 73.07323424 -41.06729157 27.8143986 -13 2 C-8.73243962 -0.84504025 -5.00771644 -0.61717566 0 0 Z " fill="#000000" transform="translate(67,89)"/>
<path d="M0 0 C12.7659032 12.48221647 14.32968587 41.64949423 15.8125 58.75 C15.92207031 59.8740625 16.03164063 60.998125 16.14453125 62.15625 C19.99398307 106.91254316 13.04638558 166.97071193 -15.56567383 203.51000977 C-18.87124449 206.95611187 -21.83154387 207.90930368 -26.5 208.0625 C-31.99026775 208.00893641 -34.92908663 205.69690808 -39 202.1875 C-41.69304418 198.92749915 -41.76523097 194.82699854 -41.71875 190.77734375 C-41.07372332 187.10164022 -39.58341251 184.25718112 -37.75 181.0625 C-22.97267372 155.27487905 -14.16661711 123.06788762 -13.984375 93.296875 C-13.97736069 92.52280807 -13.97034637 91.74874115 -13.96311951 90.95121765 C-13.94572267 88.46741843 -13.93926719 85.98385792 -13.9375 83.5 C-13.93682526 82.64963165 -13.93615051 81.79926331 -13.93545532 80.92312622 C-13.95917875 62.10025106 -16.38255117 44.82479852 -21.00390625 26.58203125 C-21.85200591 23.18024789 -22.64890325 19.77295776 -23.37890625 16.34375 C-23.5497876 15.54259766 -23.72066895 14.74144531 -23.89672852 13.91601562 C-24.4879537 9.51185962 -22.77364955 6.68349744 -20.5 3.0625 C-14.15386178 -3.28363822 -7.75810888 -3.04239564 0 0 Z " fill="#000000" transform="translate(471.1875,161.25)"/>
<path d="M0 0 C0.80004456 0.00182281 1.60008911 0.00364563 2.42437744 0.00552368 C64.80570666 0.24320666 64.80570666 0.24320666 79.5 14.9375 C82.43772284 20.01174854 82.85276132 24.49286464 81.875 30.3125 C79.36480926 34.56569182 76.60261843 37.73662719 71.875 39.3125 C65.53022528 39.89485911 60.04447001 38.80973698 54 37 C47.33263844 35.1264608 40.72106039 33.61897379 33.875 32.5625 C33.13523926 32.44737061 32.39547852 32.33224121 31.63330078 32.21362305 C-3.60566041 27.03004003 -40.00738976 30.79662905 -73.31640625 43.39453125 C-78.85471907 45.20468913 -83.62796137 45.3104475 -88.9375 42.8125 C-92.86999285 40.20000475 -94.9045151 36.83547345 -96.125 32.3125 C-96.53625281 27.35228758 -95.84852167 24.3676915 -93.01171875 20.23046875 C-90.16555322 17.00770227 -86.89994255 15.57796901 -82.875 14.25 C-81.82445435 13.88285889 -81.82445435 13.88285889 -80.75268555 13.50830078 C-78.55095879 12.75128112 -76.34050684 12.02808268 -74.125 11.3125 C-73.44324707 11.08675293 -72.76149414 10.86100586 -72.05908203 10.62841797 C-63.71791719 7.89364281 -55.301936 5.80574921 -46.6875 4.125 C-45.90286377 3.97015137 -45.11822754 3.81530273 -44.30981445 3.65576172 C-29.61621662 0.94341535 -14.92086013 -0.07144693 0 0 Z " fill="#000000" transform="translate(243.125,-0.3125)"/>
<path d="M0 0 C4.83763525 2.32923179 7.63619663 5.18147775 10 10 C10.67440622 14.28892048 10.50577955 17.80210108 8.8125 21.8125 C-11.7267846 46.60129176 -63.87430446 55.99790288 -94 59 C-95.06089844 59.11085938 -96.12179687 59.22171875 -97.21484375 59.3359375 C-119.69449374 61.31393286 -142.84667229 60.39327596 -165 56 C-163.50735612 51.44461985 -161.94150023 46.92267481 -160.25 42.4375 C-160.023125 41.79103516 -159.79625 41.14457031 -159.5625 40.47851562 C-157.44831192 34.95126329 -154.39079437 31.69539719 -149 29 C-147.50716323 28.92521048 -146.01092549 28.91355384 -144.51635742 28.93408203 C-143.11669991 28.94871994 -143.11669991 28.94871994 -141.68876648 28.96365356 C-140.1625341 28.98551224 -140.1625341 28.98551224 -138.60546875 29.0078125 C-136.42904148 29.02537345 -134.25260883 29.04227724 -132.07617188 29.05859375 C-128.66284963 29.0891543 -125.24980394 29.1241375 -121.83666992 29.17138672 C-102.92287091 29.41931781 -84.68858607 28.31253278 -66.375 23.25 C-65.42463867 22.99323486 -64.47427734 22.73646973 -63.49511719 22.47192383 C-46.14848823 17.65743791 -28.71049484 11.12758329 -13.26953125 1.76171875 C-8.68199906 -0.71017733 -5.08082055 -0.82300895 0 0 Z " fill="#000000" transform="translate(363,428)"/>
<path d="M0 0 C5.94 0.495 5.94 0.495 12 1 C12 13.87 12 26.74 12 40 C-6.73315189 38.82917801 -22.42838369 36.37986629 -38.23681641 26.38037109 C-38.94512604 25.93358002 -39.65343567 25.48678894 -40.38320923 25.02645874 C-40.91675018 24.68772736 -41.45029114 24.34899597 -42 24 C-42.00364563 25.05441284 -42.00729126 26.10882568 -42.01104736 27.19519043 C-42.04820428 37.19736431 -42.10619964 47.19923619 -42.18390274 57.2011795 C-42.22318711 62.34165101 -42.25546806 67.48195608 -42.27099609 72.62255859 C-42.28628926 77.59597018 -42.32095494 82.5689236 -42.36830902 87.54212952 C-42.38299358 89.42680345 -42.39103347 91.31154285 -42.39188385 93.1962738 C-42.41284979 116.39264726 -47.72504943 137.51885496 -64.25 154.75 C-78.72483479 168.63160386 -98.13041113 176.74818902 -118.23217773 176.46801758 C-135.14809509 175.78011444 -153.15629241 169.46706062 -165 157 C-161.55052253 157 -159.94808476 157.86034569 -156.875 159.375 C-151.93762443 161.67477757 -147.3701587 163.16334484 -142 164 C-141.3296875 164.11085938 -140.659375 164.22171875 -139.96875 164.3359375 C-119.02511718 167.2274092 -100.08078094 162.44743127 -83 150 C-68.21279914 138.35670548 -59.57693602 122.36405952 -56 104 C-55.15647547 96.84286034 -55.27615304 89.62915002 -55.29296875 82.43359375 C-55.27981855 80.41763334 -55.26450431 78.40168602 -55.24714661 76.38575745 C-55.20767211 71.13995261 -55.19713065 65.89449534 -55.19311523 60.64855957 C-55.18371221 55.27146102 -55.14625475 49.89456074 -55.11132812 44.51757812 C-55.04713564 34.01172772 -55.0135818 23.50602944 -55 13 C-53.78661705 13.72064888 -53.78661705 13.72064888 -52.54872131 14.45585632 C-51.47955978 15.08619278 -50.41039825 15.71652924 -49.30883789 16.3659668 C-48.25241592 16.99077438 -47.19599396 17.61558197 -46.1075592 18.25932312 C-42.01254991 20.55311305 -37.85856723 22.26470613 -33.4375 23.8125 C-32.20845947 24.25166748 -32.20845947 24.25166748 -30.95458984 24.69970703 C-20.57399686 28.31472644 -11.12641158 29.14412219 0 30 C0 20.1 0 10.2 0 0 Z " fill="#E92053" transform="translate(341,188)"/>
<path d="M0 0 C13.2 0 26.4 0 40 0 C40.495 4.95 40.495 4.95 41 10 C31.43 10 21.86 10 12 10 C12.00888245 12.01764969 12.01776489 14.03529938 12.0269165 16.11408997 C12.10874557 35.13860515 12.16822506 54.16309706 12.20724869 73.18774891 C12.22784523 82.96825435 12.25591009 92.74863038 12.30175781 102.52905273 C12.34171476 111.05692103 12.36745394 119.58469556 12.37635398 128.11265486 C12.38155376 132.62523268 12.39371412 137.13754235 12.42292023 141.65003395 C12.45022956 145.90424846 12.45841392 150.15808637 12.45243073 154.41238022 C12.45352407 155.96712356 12.46138519 157.52188053 12.4768219 159.07654762 C12.59554194 171.65864602 10.94977661 182.55540401 2 192 C-5.12909378 198.5635647 -14.45979748 200.96980949 -24 201 C-31.82435834 200.3836978 -39.16723729 196.79838815 -44.7421875 191.2734375 C-45.89335841 189.90113772 -46.95888555 188.45756024 -48 187 C-46.96875 187.33 -45.9375 187.66 -44.875 188 C-34.73730496 190.47610959 -24.26531957 189.94052641 -15 185 C-7.43891191 180.11895512 -3.79616279 173.38848837 -1 165 C-0.89614481 162.79354592 -0.85352198 160.58406407 -0.84178162 158.37519836 C-0.83684364 157.69884895 -0.83190566 157.02249954 -0.82681805 156.32565469 C-0.81143523 154.0547521 -0.80308033 151.78387781 -0.79467773 149.51293945 C-0.78509982 147.88689932 -0.77508979 146.26086168 -0.76467896 144.63482666 C-0.73761439 140.2157397 -0.71661322 135.79664204 -0.69667697 131.37751794 C-0.674827 126.76103272 -0.64743347 122.14458053 -0.62062073 117.52812195 C-0.57068046 108.78403759 -0.52574658 100.03993491 -0.48259836 91.29581469 C-0.43323739 81.34186193 -0.37831503 71.38794231 -0.32291877 61.43402159 C-0.20907824 40.95604377 -0.10297791 20.47803553 0 0 Z " fill="#67C5CC" transform="translate(246,124)"/>
<path d="M0 0 C7.03472016 4.38082754 12.97313356 10.30740668 18.9140625 16.03515625 C19.5642334 16.6580957 20.2144043 17.28103516 20.88427734 17.92285156 C43.92164432 40.09733483 43.92164432 40.09733483 44.15234375 50.03515625 C43.62319773 54.47651299 41.78102272 57.14342574 38.7265625 60.28515625 C33.95618681 63.25339001 29.94683673 64.28479519 24.3515625 63.59765625 C19.81805889 61.53697279 17.17125628 58.73388074 13.9140625 55.03515625 C13.31335938 54.36613281 12.71265625 53.69710937 12.09375 53.0078125 C9.47345955 50.05289622 6.93643712 47.06326795 4.4765625 43.97265625 C1.96155759 41.08960184 -0.65670151 38.71438224 -3.5546875 36.234375 C-6.92714553 33.30429187 -10.23112026 30.30474702 -13.5234375 27.28515625 C-14.46497681 26.43425415 -14.46497681 26.43425415 -15.42553711 25.56616211 C-16.30737671 24.75417358 -16.30737671 24.75417358 -17.20703125 23.92578125 C-17.7373999 23.44141602 -18.26776855 22.95705078 -18.81420898 22.45800781 C-21.44667534 19.51271814 -21.42918317 15.95772082 -21.359375 12.16015625 C-20.79834712 7.80016819 -18.86333177 4.56056551 -15.54296875 1.7109375 C-10.61444241 -1.50331881 -5.44127365 -2.5168438 0 0 Z " fill="#000000" transform="translate(393.0859375,50.96484375)"/>
<path d="M0 0 C0 2.97 0 5.94 0 9 C-1.23234375 9.23074219 -2.4646875 9.46148437 -3.734375 9.69921875 C-25.51240973 13.92655107 -43.30800898 22.17682853 -57.1171875 40.20703125 C-63.10906379 49.09539546 -67.01835917 58.45767078 -69 69 C-69.226875 70.155 -69.45375 71.31 -69.6875 72.5 C-71.45910885 92.34201916 -66.66546013 110.42168184 -54.890625 126.41796875 C-53 129 -53 129 -52 131 C-65.19688975 124.89789832 -74.33635642 109.89066718 -79.22265625 96.69921875 C-85.30580247 77.79567835 -84.18170554 58.17003134 -76 40 C-65.02360106 20.37189797 -48.57542437 7.40078145 -27.25 0.84765625 C-18.55727235 -1.41955757 -8.75067612 -2.18766903 0 0 Z " fill="#68C5CC" transform="translate(223,209)"/>
<path d="M0 0 C3.38104435 1.43148774 6.25686083 3.38898965 9.25 5.5 C10.90033763 6.61105858 12.55270041 7.71911472 14.20703125 8.82421875 C15.01350098 9.36868652 15.8199707 9.9131543 16.65087891 10.47412109 C20.99651988 13.29684569 25.60483346 15.63107694 30.21484375 17.98828125 C33.72757107 20.52552468 35.53979917 22.92887138 37 27 C37.77128093 33.42734109 36.25861464 37.74844823 33.5 43.5 C33.16613281 44.22703125 32.83226562 44.9540625 32.48828125 45.703125 C31.67228705 47.47499813 30.83802408 49.23843917 30 51 C23.246013 49.02894471 17.30710299 46.26026392 11.1875 42.8125 C10.31383789 42.32491211 9.44017578 41.83732422 8.54003906 41.33496094 C-17.43765198 26.68704407 -17.43765198 26.68704407 -20 19 C-20.53856933 14.36477214 -20.45178019 10.92093654 -18.375 6.6875 C-12.86299633 0.45023268 -8.12722724 -1.20200759 0 0 Z " fill="#000000" transform="translate(116,416)"/>
<path d="M0 0 C3.63 0 7.26 0 11 0 C12 1 12 1 12.11352539 4.78540039 C12.11336622 6.47282729 12.10766917 8.16025905 12.09765625 9.84765625 C12.0962413 10.7340831 12.09482635 11.62050995 12.09336853 12.53379822 C12.08775215 15.37673254 12.07519691 18.21958931 12.0625 21.0625 C12.05748711 22.98502491 12.05292384 24.90755104 12.04882812 26.83007812 C12.03777741 31.55341549 12.02050183 36.27669458 12 41 C10.17275391 40.96519531 10.17275391 40.96519531 8.30859375 40.9296875 C6.68490201 40.9109165 5.06120358 40.89271773 3.4375 40.875 C2.63763672 40.85824219 1.83777344 40.84148437 1.01367188 40.82421875 C-8.59238185 40.74580198 -14.998832 43.27887872 -22 50 C-27.72841353 57.02035361 -30.38243111 63.62398961 -30.3125 72.75 C-30.31056641 73.79800781 -30.31056641 73.79800781 -30.30859375 74.8671875 C-30.20297354 80.59180281 -29.15173718 85.6718889 -27 91 C-33.47765656 88.04527946 -37.68623 83.44972957 -40.375 76.875 C-43.81053238 67.5243771 -44.62963239 57.71975049 -40.453125 48.484375 C-35.18479784 39.47723502 -27.86684711 33.28894904 -18 30 C-15.48818571 29.90382693 -13.01083378 29.86065238 -10.5 29.875 C-9.82324219 29.87113281 -9.14648438 29.86726563 -8.44921875 29.86328125 C-5.35926233 29.86937584 -2.95320689 30.0155977 0 31 C0 20.77 0 10.54 0 0 Z " fill="#E91F52" transform="translate(223,218)"/>
<path d="M0 0 C3.63 0 7.26 0 11 0 C11.061875 2.475 11.061875 2.475 11.125 5 C11.57830144 10.52502195 12.8844056 15.28481341 14.8125 20.4375 C15.06080566 21.11103516 15.30911133 21.78457031 15.56494141 22.47851562 C17.17450476 26.58080185 19.18774998 29.6387207 22 33 C22 33.66 22 34.32 22 35 C11.42048309 30.26150241 5.2338867 18.87401197 1.0625 8.5625 C0 5 0 5 0 0 Z " fill="#E22051" transform="translate(287,133)"/>
<path d="M0 0 C0.845625 0.40992188 1.69125 0.81984375 2.5625 1.2421875 C11.87019543 5.66334283 19.75846711 8.03985629 30 9 C30 11.97 30 14.94 30 18 C18.81777225 15.08289711 8.43635627 10.08223762 0 2 C0 1.34 0 0.68 0 0 Z " fill="#6AC4CB" transform="translate(311,170)"/>
</svg>
